/* XPM */
static char * gams_logo_xpm[] = {
"18 16 40 1",
"       c None",
".      c #F8CD93",
"+      c #F4961A",
"@      c #FFFEF2",
"#      c #F49619",
"$      c #FFFEF7",
"%      c #F39820",
"&      c #FCF1E3",
"*      c #FFFFFF",
"=      c #F59C26",
"-      c #F59C25",
";      c #F49A23",
">      c #F4961C",
",      c #F4961B",
"'      c #EE9D33",
")      c #E3A957",
"!      c #FCEDDA",
"~      c #FEFDFB",
"{      c #FFFEFE",
"]      c #FDFAF3",
"^      c #FDEED9",
"/      c #F39518",
"(      c #FDECCA",
"_      c #FFFFFE",
":      c #636363",
"<      c #060606",
"[      c #000000",
"}      c #040404",
"|      c #E3E3E3",
"1      c #FFFFFC",
"2      c #F4D7B1",
"3      c #FAD6A5",
"4      c #F2DCC0",
"5      c #616161",
"6      c #070707",
"7      c #9B9B9B",
"8      c #CDCDCD",
"9      c #C3C3C3",
"0      c #B8B8B8",
"a      c #010101",
".++++++++++++++++@",
".++++++++++++++++@",
".++++++++++++++++@",
".+++++++++++++++#$",
".++++++++++++++%&*",
".++=-;>++++++,'***",
".)!~{]^.++++/(_***",
"*:<[[}:|1234_**56*",
"7[[[[[[[89**07[[[*",
"7[[[[[[[|[[[[[[[[*",
"7[[[[[[[|[[[[[[[[*",
"7[[[[[[[|[[[[[[[[*",
"7[[[[[[[|a[[[[[[[*",
"7[[[[[[[|a[[[[[[[*",
"7[[[[[[[|a[[[[[[[*",
"7[[[[[[[|a[[[[[[[*"};
